<svg xmlns="http://www.w3.org/2000/svg" xmlns:xlink="http://www.w3.org/1999/xlink" version="1.1" x="0px" y="0px" viewBox="0 0 100 100" style="enable-background:new 0 0 100 100;" xml:space="preserve"><path fill="#64B5F6" d="M78.8,71.5l3.5,2l0.1-0.2c4.9-6.8,7.5-14.9,7.5-23.4c0.1-10.9-4-21.1-11.6-28.7C70.7,13.5,60.6,9.2,49.7,9.2  C27.5,9.2,9.3,27.4,9.3,49.7s18.1,40.4,40.4,40.4c3.9,0,7.6-0.5,11.1-1.6l0.2-0.1l-0.8-4l-0.3,0.1c-3.4,1-6.9,1.6-10.4,1.6  c-20,0-36.3-16.3-36.3-36.3c0-20,16.3-36.3,36.3-36.3S86,29.7,86,49.8c0,7.7-2.4,15.1-7,21.5L78.8,71.5z"/><path fill="#64B5F6" d="M83.9,16C74.8,6.8,62.6,1.8,49.7,1.8c-4.5,0-8.8,0.6-12.9,1.8l-0.2,0.1l0.7,3.7l0.3-0.1  c4-1.1,8.1-1.7,12.1-1.7c24.5,0,44.5,19.9,44.5,44.5S74.2,94.5,49.7,94.5C25.2,94.4,5.3,74.4,5.3,49.9c0-9.3,2.8-18.1,8.2-25.7  l0.2-0.2l-3.3-1.9l-0.1,0.2C4.5,30.4,1.5,40,1.5,50.1c0,26.5,21.6,48.1,48.1,48.1c26.6,0,48.2-21.6,48.2-48.1  C97.9,37.2,93,25.1,83.9,16z"/><path fill="#64B5F6" d="M48.5,60.7l-1.4,5.7l4.5-3.2L51,60.8l1.9-2.2c0.1-0.1,0.1-0.2,0-0.3l-1.2-2.8c0-0.1-0.1-0.1-0.2-0.1H48  c-0.1,0-0.2,0.1-0.2,0.1l-1.1,2.8c0,0.1,0,0.2,0,0.3L48.5,60.7z"/><path fill="#64B5F6" d="M49.8,25.1c-7.1,0-12.9,5.8-12.9,12.9c0,7.1,5.8,12.9,12.9,12.9c7.1,0,12.9-5.8,12.9-12.9  C62.7,30.9,56.9,25.1,49.8,25.1z M49.8,48c-5.5,0-10-4.5-10-10c0-0.8,0.1-1.7,0.3-2.4c1.2,0.6,3.3,1.4,5.7,1.4  c1.7,0,3.6-0.4,5.4-1.7c0.2-0.1,4.6-3.3,8.1-0.1c0.3,0.9,0.4,1.9,0.4,2.9C59.8,43.5,55.3,48,49.8,48z"/><polygon fill="#64B5F6" points="53.8,72.4 53.2,69.7 49.3,72.4 "/><polygon fill="#64B5F6" points="46.6,72.4 52.8,68.1 52,65 46.6,68.8 45.7,72.4 "/><path fill="#64B5F6" d="M73,72.4v-5.8c0-6.2-5-11.2-11.2-11.2h-0.3l-5.2,17.1H73z"/><path fill="#64B5F6" d="M43.3,72.4l-5-17.1h-0.5c-6.2,0-11.2,5-11.2,11.2v5.8H43.3z"/></svg>