<svg xmlns="http://www.w3.org/2000/svg" xmlns:xlink="http://www.w3.org/1999/xlink" version="1.1" x="0px" y="0px" viewBox="0 0 128 128" enable-background="new 0 0 128 128" xml:space="preserve"><g><path fill="#64B5F6" d="M98.2,116.4H29.8c-2.4,0-4.4,2-4.4,4.4v1.8c0,2.4,2,4.4,4.4,4.4h68.4c2.4,0,4.4-2,4.4-4.4v-1.8   C102.6,118.3,100.6,116.4,98.2,116.4z"/><path fill="#64B5F6" d="M120.9,1H7.1C3.7,1,1,3.7,1,7.1v82c0,3.3,2.7,6.1,6.1,6.1h113.9c3.3,0,6.1-2.7,6.1-6.1v-82   C127,3.7,124.3,1,120.9,1z M67.8,88.4h-7.7c-1.1,0-2-0.9-2-2s0.9-2,2-2h7.7c1.1,0,2,0.9,2,2S69,88.4,67.8,88.4z M114.8,79H13.2   V13.2h101.6V79z"/><path fill="#64B5F6" d="M27.9,49.6l-4.1,4.1l5.6,5.6l4.1-4.1c1,0.6,2.1,1,3.2,1.3v5.7h7.9v-5.7c1.1-0.3,2.2-0.8,3.2-1.3l4.1,4.1   l5.6-5.6l-4.1-4.1c0.5-1,0.9-2,1.2-3.1h5.9v-7.9h-6c-0.3-1-0.7-2-1.3-2.9l4.3-4.3l-5.6-5.6l-4.4,4.4c-0.9-0.5-1.9-0.9-2.9-1.2v-6.2   h-7.9V29c-1,0.3-2,0.7-2.9,1.2l-4.4-4.4l-5.6,5.6l4.3,4.3c-0.5,0.9-1,1.9-1.3,2.9h-6v7.9h5.9C27,47.6,27.4,48.6,27.9,49.6z    M40.5,34.7c4.4,0,8.1,3.6,8.1,8.1c0,4.4-3.6,8.1-8.1,8.1s-8.1-3.6-8.1-8.1C32.5,38.3,36.1,34.7,40.5,34.7z"/><path fill="#64B5F6" d="M79.6,61l-2.9,2.9l3.9,3.9l2.8-2.8c0.7,0.4,1.4,0.7,2.2,0.9v4h5.5v-4c0.8-0.2,1.5-0.5,2.2-0.9l2.8,2.8   l3.9-3.9L97.2,61c0.4-0.7,0.6-1.4,0.8-2.2h4.1v-5.5h-4.2c-0.2-0.7-0.5-1.4-0.9-2l3-3l-3.9-3.9l-3,3c-0.6-0.3-1.3-0.6-2-0.8v-4.3   h-5.5v4.3c-0.7,0.2-1.4,0.5-2,0.8l-3-3l-3.9,3.9l3,3c-0.4,0.6-0.7,1.3-0.9,2h-4.2v5.5h4.1C79,59.6,79.3,60.3,79.6,61z M88.4,50.6   c3.1,0,5.6,2.5,5.6,5.6c0,3.1-2.5,5.6-5.6,5.6s-5.6-2.5-5.6-5.6C82.8,53.2,85.3,50.6,88.4,50.6z"/><polygon fill="#64B5F6" points="45.8,100.2 42.2,111.2 85.8,111.2 82.2,100.2  "/></g></svg>