<svg xmlns="http://www.w3.org/2000/svg" xmlns:xlink="http://www.w3.org/1999/xlink" version="1.1" x="0px" y="0px" viewBox="0 0 48 48" enable-background="new 0 0 48 48" xml:space="preserve"><g><path fill="#64B5F6" d="M38.9,16.8c-0.6-2.3-2.3-4.3-4.5-5.2c-2.1-0.8-4.4-0.7-6.3,0.3C25.8,7,20.8,5.7,16.9,6.7   c-3.9,0.9-7.8,4.5-7.5,10c-4,1.1-5.6,4.8-5.4,7.9c0.3,3.4,2.8,7,7.6,7h13.2v-2H11.6C8,29.6,6.2,27,6,24.4c-0.2-2.6,1.1-5.4,4.6-6   l1-0.2l-0.1-1c-0.7-4.9,2.5-7.9,5.9-8.7c0.7-0.2,1.4-0.2,2.1-0.2c2.9,0,6,1.5,7.3,5.3l0.4,1.3l1.1-0.8c1.6-1.2,3.6-1.4,5.4-0.7   c1.8,0.7,3.1,2.3,3.4,4.3l0.1,0.6l0.6,0.2c3.3,0.9,4.5,3.7,4.1,6.2c-0.3,2.4-2.2,4.9-5.6,4.9h-5.6v2h5.6c4.6,0,7.1-3.5,7.5-6.7   C44.3,21.9,42.9,18.1,38.9,16.8z"/><path fill="#64B5F6" d="M24.8,21.4h-4.6l1.3-1.3c0.4-0.4,0.4-1,0-1.4s-1-0.4-1.4,0l-3.7,3.7l3.7,3.7c0.2,0.2,0.5,0.3,0.7,0.3   s0.5-0.1,0.7-0.3c0.4-0.4,0.4-1,0-1.4l-1.3-1.3h4.6c1.1,0,2,0.9,2,2v15.5h2V25.4C28.8,23.2,27,21.4,24.8,21.4z"/></g></svg>