<svg xmlns:dc="http://purl.org/dc/elements/1.1/" xmlns:cc="http://creativecommons.org/ns#" xmlns:rdf="http://www.w3.org/1999/02/22-rdf-syntax-ns#" xmlns:svg="http://www.w3.org/2000/svg" xmlns="http://www.w3.org/2000/svg" xmlns:sodipodi="http://sodipodi.sourceforge.net/DTD/sodipodi-0.dtd" xmlns:inkscape="http://www.inkscape.org/namespaces/inkscape" viewBox="0 0 48 48" version="1.1" x="0px" y="0px"><g transform="translate(0,-1004.3622)"><text xml:space="preserve" style="letter-spacing:0px;word-spacing:0px;" x="12" y="1036.3622" font-style="normal" font-weight="normal" font-size="11.25px" line-height="125%" font-family="Sans" fill="#000000" fill-opacity="1" stroke="none"><tspan x="12" y="1036.3622"/></text><path style="color:#000000;font-style:normal;font-variant:normal;font-weight:normal;font-stretch:normal;font-size:medium;line-height:normal;font-family:sans-serif;text-indent:0;text-align:start;text-decoration:none;text-decoration-line:none;text-decoration-style:solid;text-decoration-color:#000000;letter-spacing:normal;word-spacing:normal;text-transform:none;direction:ltr;block-progression:tb;writing-mode:lr-tb;baseline-shift:baseline;text-anchor:start;white-space:normal;clip-rule:nonzero;display:inline;overflow:visible;visibility:visible;opacity:1;isolation:auto;mix-blend-mode:normal;color-interpolation:sRGB;color-interpolation-filters:linearRGB;solid-color:#000000;solid-opacity:1;fill:#64B5F6;fill-opacity:1;fill-rule:nonzero;stroke:none;stroke-width:1;stroke-linecap:butt;stroke-linejoin:round;stroke-miterlimit:4;stroke-dasharray:none;stroke-dashoffset:0;stroke-opacity:1;color-rendering:auto;image-rendering:auto;shape-rendering:auto;text-rendering:auto;enable-background:accumulate" d="M 24 0 C 10.751088 0 0 10.7511 0 24 C 0 37.2489 10.751088 48 24 48 C 37.248912 48 48 37.2489 48 24 C 48 10.7511 37.248912 0 24 0 z M 24 1 C 36.708472 1 47 11.2916 47 24 C 47 36.7085 36.708472 47 24 47 C 11.291528 47 1 36.7085 1 24 C 1 11.2916 11.291528 1 24 1 z M 17.455078 8.0058594 A 0.50004997 0.50004997 0 0 0 17.101562 8.1523438 L 12.146484 13.117188 A 0.50004997 0.50004997 0 0 0 12 13.472656 L 12 27.505859 A 0.50004997 0.50004997 0 0 0 12.5 28.005859 L 14.292969 28.005859 L 11.146484 31.152344 A 0.50005 0.50005 0 0 0 11.5 32.005859 L 34.5 32.005859 A 0.50005 0.50005 0 0 0 35 31.505859 L 35 8.5058594 A 0.50005 0.50005 0 0 0 34.5 8.0058594 A 0.50005 0.50005 0 0 0 34.146484 8.1523438 L 32 10.298828 L 32 8.5078125 A 0.50004997 0.50004997 0 0 0 31.5 8.0078125 L 17.455078 8.0078125 L 17.455078 8.0058594 z M 18 9.0078125 L 31 9.0078125 L 31 11.298828 L 28.292969 14.005859 L 20.507812 14.005859 A 0.50005 0.50005 0 1 0 20.507812 15.005859 L 27.292969 15.005859 L 25.292969 17.005859 L 15.507812 17.005859 A 0.50005 0.50005 0 1 0 15.507812 18.005859 L 24.292969 18.005859 L 22.292969 20.005859 L 15.507812 20.005859 A 0.50005 0.50005 0 1 0 15.507812 21.005859 L 21.292969 21.005859 L 19.292969 23.005859 L 15.507812 23.005859 A 0.50005 0.50005 0 1 0 15.507812 24.005859 L 18.292969 24.005859 L 15.292969 27.005859 A 0.50004997 0.50004997 0 0 0 15.283203 27.005859 L 13 27.005859 L 13 14.005859 L 17.464844 14.005859 L 17.5 14.005859 A 0.50004997 0.50004997 0 0 0 17.599609 13.994141 A 0.50004997 0.50004997 0 0 0 18 13.505859 L 18 9.0078125 z M 17 9.671875 L 17 13.005859 L 13.671875 13.005859 L 17 9.671875 z M 34 9.7128906 L 34 31.005859 L 12.707031 31.005859 L 28.810547 14.902344 A 0.50005 0.50005 0 0 0 28.904297 14.808594 L 34 9.7128906 z M 20.457031 11.005859 A 0.50064426 0.50064426 0 0 0 20.507812 12.005859 L 28.5 12.005859 A 0.50005 0.50005 0 1 0 28.5 11.005859 L 20.507812 11.005859 A 0.50005 0.50005 0 0 0 20.457031 11.005859 z M 31.5 15.474609 A 0.50005 0.50005 0 0 0 31.146484 15.621094 L 18.615234 28.152344 A 0.50005 0.50005 0 0 0 18.96875 29.005859 L 31.5 29.005859 A 0.50005 0.50005 0 0 0 32 28.505859 L 32 15.974609 A 0.50005 0.50005 0 0 0 31.5 15.474609 z M 31 17.181641 L 31 28.005859 L 20.175781 28.005859 L 31 17.181641 z M 15.46875 33 L 15.46875 33.005859 A 0.50005 0.50005 0 0 0 15.232422 33.082031 L 11.277344 35.058594 A 0.50004997 0.50004997 0 0 0 11.277344 35.953125 L 15.251953 37.941406 A 0.50004997 0.50004997 0 0 0 15.267578 37.951172 A 0.50005 0.50005 0 0 0 15.279297 37.951172 A 0.50004997 0.50004997 0 0 0 15.316406 37.96875 A 0.50005 0.50005 0 0 0 15.318359 37.96875 A 0.50005 0.50005 0 0 0 15.445312 38 A 0.50004997 0.50004997 0 0 0 15.464844 38 A 0.50005 0.50005 0 0 0 15.46875 38 A 0.50005 0.50005 0 0 0 15.5 38 L 31.5 38 A 0.50005 0.50005 0 0 0 31.53125 38 L 34 38 C 35.099358 38 36 37.0994 36 36 L 36 35 C 36 33.9007 35.099358 33 34 33 L 31.5 33 A 0.50005 0.50005 0 0 0 31.449219 33 L 15.5 33 A 0.50005 0.50005 0 0 0 15.46875 33 z M 16 34.005859 L 31 34.005859 L 31 35.005859 L 16 35.005859 L 16 34.005859 z M 32 34.005859 L 34 34.005859 C 34.562662 34.005859 35 34.443259 35 35.005859 L 35 36.005859 C 35 36.568559 34.562662 37.005859 34 37.005859 L 32 37.005859 L 32 34.005859 z M 15 34.314453 L 15 36.697266 L 12.617188 35.505859 L 15 34.314453 z M 16 36.005859 L 31 36.005859 L 31 37.005859 L 16 37.005859 L 16 36.005859 z " transform="translate(0,1004.3622)"/></g></svg>